HIERARCHY
ROOT Hips
{
 OFFSET 0.000000 0.000000 0.000000
 CHANNELS 6 Xposition Yposition Zposition Yrotation Xrotation Zrotation
 JOINT Chest
 {
  OFFSET 0.000000 9.581000 -0.001100
  CHANNELS 3 Yrotation Xrotation Zrotation
  JOINT Chest2
  {
   OFFSET 0.000000 9.561100 0.002200
   CHANNELS 3 Yrotation Xrotation Zrotation
   JOINT Chest3
   {
    OFFSET 0.000000 9.521100 0.000000
    CHANNELS 3 Yrotation Xrotation Zrotation
    JOINT Chest4
    {
     OFFSET 0.000000 9.511400 0.000000
     CHANNELS 3 Yrotation Xrotation Zrotation
     JOINT Neck
     {
      OFFSET 0.000000 14.375100 0.000000
      CHANNELS 3 Yrotation Xrotation Zrotation
      JOINT Head
      {
       OFFSET 0.000000 8.901200 0.004600
       CHANNELS 3 Yrotation Xrotation Zrotation
       End Site
       {
        OFFSET 0.000000 16.962200 0.002400
       }
      }
     }
     JOINT RightCollar
     {
      OFFSET -2.920100 9.518800 0.000000
      CHANNELS 3 Yrotation Xrotation Zrotation
      JOINT RightShoulder
      {
       OFFSET -13.664500 0.000000 0.000000
       CHANNELS 3 Yrotation Xrotation Zrotation
       JOINT RightElbow
       {
        OFFSET 0.000000 -29.999200 0.000000
        CHANNELS 3 Yrotation Xrotation Zrotation
        JOINT RightWrist
        {
         OFFSET 0.000000 -24.253600 0.000000
         CHANNELS 3 Yrotation Xrotation Zrotation
         End Site
         {
          OFFSET 0.000000 -17.918900 0.000000
         }
        }
       }
      }
     }
     JOINT LeftCollar
     {
      OFFSET 2.920100 9.518800 0.000000
      CHANNELS 3 Yrotation Xrotation Zrotation
      JOINT LeftShoulder
      {
       OFFSET 13.664500 0.000000 0.000000
       CHANNELS 3 Yrotation Xrotation Zrotation
       JOINT LeftElbow
       {
        OFFSET 0.000000 -29.999200 0.000000
        CHANNELS 3 Yrotation Xrotation Zrotation
        JOINT LeftWrist
        {
         OFFSET 0.000000 -24.253600 0.000000
         CHANNELS 3 Yrotation Xrotation Zrotation
         End Site
         {
          OFFSET 0.000000 -17.918900 0.000000
         }
        }
       }
      }
     }
    }
   }
  }
 }
 JOINT RightHip
 {
  OFFSET -7.797300 0.005300 0.000500
  CHANNELS 3 Yrotation Xrotation Zrotation
  JOINT RightKnee
  {
   OFFSET 0.000000 -40.663400 -0.000500
   CHANNELS 3 Yrotation Xrotation Zrotation
   JOINT RightAnkle
   {
    OFFSET 0.000000 -39.523700 -0.000900
    CHANNELS 3 Yrotation Xrotation Zrotation
    JOINT RightToe
    {
     OFFSET 0.000000 -6.418000 14.485300
     CHANNELS 3 Yrotation Xrotation Zrotation
     End Site
     {
      OFFSET 0.000000 -1.465200 6.326400
     }
    }
   }
  }
 }
 JOINT LeftHip
 {
  OFFSET 7.797300 0.005300 0.000500
  CHANNELS 3 Yrotation Xrotation Zrotation
  JOINT LeftKnee
  {
   OFFSET 0.000000 -40.663400 -0.000500
   CHANNELS 3 Yrotation Xrotation Zrotation
   JOINT LeftAnkle
   {
    OFFSET 0.000000 -39.523700 -0.000900
    CHANNELS 3 Yrotation Xrotation Zrotation
    JOINT LeftToe
    {
     OFFSET 0.000000 -6.418000 14.485300
     CHANNELS 3 Yrotation Xrotation Zrotation
     End Site
     {
      OFFSET 0.000000 -1.465200 6.326400
     }
    }
   }
  }
 }
}
MOTION
Frames: 15
Frame Time: 0.008333
0.000000 86.422400 0.000000 0.000000 -5.767877 0.000000 0.000000 11.653817 0.000000 0.000000 -5.885947 0.000000 0.000000 -0.000000 0.000000 0.000000 -0.000000 0.000000 0.000000 12.528835 0.000000 0.000000 0.711642 0.000000 0.000000 -0.000000 0.000000 0.000000 0.000000 -90.000000 0.000000 -2.309062 0.000000 0.000000 2.309062 0.000000 0.000000 -0.000000 0.000000 0.000000 -0.000000 90.000000 0.000000 -2.309062 0.000000 0.000000 2.309062 0.000000 0.000000 8.520406 0.000000 0.000000 1.905762 0.000000 -0.000000 -4.658285 0.000000 0.000000 -0.000000 0.000000 0.000000 8.520406 0.000000 0.000000 1.905762 0.000000 -0.000000 -4.658285 0.000000 0.000000 -0.000000 0.000000
-13.828090 126.912074 26.783855 -166.280423 -49.868783 -3.399016 -2.975442 26.316533 -1.395369 -0.443414 4.429261 -0.134188 -0.698058 7.024212 -0.236128 -2.367278 21.603946 -1.007227 -5.080776 15.018917 3.189690 -6.221861 -9.776956 4.620864 1.757806 2.594595 1.358598 3.510746 -6.612569 -9.226301 -94.066893 -66.186498 143.055200 12.277625 23.837700 2.952717 -8.956758 -0.979431 -0.938548 3.607439 -19.215609 9.340499 81.768495 -58.249771 -121.734550 -3.861525 2.488516 -3.114537 -6.200786 -22.704522 -6.803144 -4.778993 78.469129 -4.272424 6.875215 -14.823093 2.860518 0.000159 -0.000778 0.000070 5.918480 6.267135 1.575891 128.289431 65.238410 148.101258 6.539041 12.494881 -0.266805 0.000186 0.006957 0.000082
-13.828573 126.912346 26.783031 -166.284724 -49.864056 -3.392110 -2.977988 26.314092 -1.397793 -0.458096 4.443812 -0.126267 -0.697500 7.021938 -0.235551 -2.378722 21.604500 -1.010666 -5.016910 14.923024 3.129925 -6.135192 -9.885023 4.538861 1.765748 2.562169 1.304611 3.508843 -6.593434 -9.189338 -93.911363 -66.236709 142.882860 12.385543 23.812196 2.964157 -9.046643 -0.948637 -0.945946 3.381241 -18.900613 9.523172 80.432167 -58.627998 -120.392229 -4.232653 3.409363 -2.927041 -6.198296 -22.709036 -6.802321 -4.792621 78.468611 -4.286724 6.866256 -14.824404 2.860711 -0.000089 -0.000820 -0.000039 5.918211 6.257360 1.572370 128.291999 65.237552 148.097568 6.540575 12.510629 -0.280008 -0.002275 0.007617 -0.001008
-13.828910 126.911983 26.782633 -166.285017 -49.853248 -3.388890 -2.995553 26.317248 -1.400897 -0.451681 4.436608 -0.129500 -0.707705 7.029722 -0.231309 -2.387800 21.605399 -1.010630 -4.956819 14.823335 3.065247 -6.051582 -9.996882 4.452563 1.724937 2.525564 1.198512 3.535746 -6.575098 -9.070180 -93.724937 -66.309075 142.687568 12.484282 23.776888 2.967138 -9.143651 -0.915912 -0.956814 3.140115 -18.563670 9.703869 79.177751 -59.015843 -119.083734 -4.651927 4.461820 -2.674204 -6.198178 -22.719893 -6.798628 -4.811231 78.469201 -4.305928 6.851317 -14.825341 2.863321 -0.001762 -0.000824 -0.000781 5.915238 6.243844 1.567643 128.292195 65.234980 148.092963 6.514632 12.485772 -0.202544 0.000877 -0.002900 0.000388
-13.828762 126.911236 26.782440 -166.282200 -49.838705 -3.391104 -3.023941 26.328122 -1.401390 -0.436120 4.417960 -0.136242 -0.728637 7.049403 -0.222203 -2.392632 21.595173 -1.018935 -4.902012 14.719851 2.995870 -5.972752 -10.112383 4.362634 1.702968 2.489711 1.126506 3.560354 -6.559070 -8.993195 -93.501230 -66.360474 142.433198 12.566680 23.723925 2.970638 -9.247363 -0.878715 -0.970766 2.908703 -18.213237 9.877805 77.976579 -59.400024 -117.806471 -5.114079 5.655369 -2.389439 -6.202534 -22.734506 -6.789986 -4.836556 78.469498 -4.332653 6.845307 -14.823016 2.858236 -0.002635 0.000013 -0.001167 5.911139 6.227474 1.564974 128.298071 65.232568 148.097860 6.498160 12.465092 -0.152475 0.004613 -0.008927 0.002044
-13.828862 126.911569 26.781374 -166.286013 -49.832786 -3.388533 -3.037676 26.332838 -1.404464 -0.434787 4.420230 -0.134667 -0.720608 7.039765 -0.226399 -2.422180 21.608917 -1.014469 -4.861616 14.657335 2.950274 -5.884267 -10.279229 4.239019 1.674114 2.435659 1.053371 3.599574 -6.524399 -8.918319 -93.215226 -66.391994 142.103762 12.630583 23.639388 2.967908 -9.348045 -0.832168 -0.986731 2.700100 -17.861377 10.038794 76.813337 -59.769824 -116.564073 -5.596546 6.995600 -2.112867 -6.195761 -22.740569 -6.783257 -4.846985 78.469771 -4.342946 6.850843 -14.820513 2.854654 -0.000579 -0.000542 -0.000257 5.911932 6.220117 1.563629 128.290299 65.234443 148.088685 6.505266 12.485765 -0.189439 0.001226 -0.004924 0.000543
-13.828825 126.912151 26.780082 -166.285999 -49.829001 -3.390143 -3.046097 26.334100 -1.404947 -0.443850 4.428456 -0.133651 -0.725717 7.042378 -0.226431 -2.441943 21.608599 -1.013197 -4.815344 14.524325 2.850889 -5.826630 -10.379179 4.150642 1.636063 2.369510 0.978173 3.603775 -6.446625 -8.748473 -92.896747 -66.484206 141.784575 12.667380 23.520523 2.953954 -9.440153 -0.774009 -1.004214 2.512175 -17.517871 10.184464 75.688462 -60.131476 -115.352258 -6.058312 8.458136 -1.892655 -6.193499 -22.743343 -6.775645 -4.846227 78.470072 -4.343975 6.856301 -14.820828 2.851102 -0.000381 -0.001170 -0.000169 5.909910 6.216798 1.563758 128.287386 65.235408 148.085392 6.519324 12.507595 -0.244305 -0.001177 0.004308 -0.000522
-13.828278 126.912489 26.778941 -166.283303 -49.823475 -3.396278 -3.056191 26.333162 -1.402865 -0.482042 4.444951 -0.126453 -0.706281 7.034569 -0.232528 -2.463588 21.609333 -1.015631 -4.780377 14.386249 2.743373 -5.773295 -10.481227 4.056324 1.589599 2.302660 0.898582 3.615427 -6.352154 -8.577700 -92.525391 -66.538789 141.406233 12.662673 23.377436 2.925717 -9.523680 -0.711159 -1.024018 2.337189 -17.182489 10.320764 74.603270 -60.488755 -114.169246 -6.461003 9.992936 -1.758898 -6.194348 -22.747261 -6.763918 -4.876249 78.469717 -4.372953 6.860033 -14.822041 2.844919 -0.000612 -0.002098 -0.000271 5.907097 6.212992 1.567265 128.286258 65.232701 148.080233 6.515843 12.492624 -0.219459 -0.001520 0.005757 -0.000674
-13.828158 126.911851 26.778731 -166.287966 -49.811083 -3.392277 -3.078912 26.328265 -1.408981 -0.485151 4.447826 -0.126878 -0.712210 7.035136 -0.232977 -2.481657 21.610845 -1.021038 -4.758191 14.268636 2.648136 -5.724717 -10.609838 3.947295 1.535709 2.241749 0.816645 3.628015 -6.253641 -8.402466 -92.094759 -66.555177 140.962293 12.611847 23.220563 2.881735 -9.601465 -0.650365 -1.046365 2.172235 -16.848306 10.452787 73.550350 -60.831741 -113.017556 -6.790112 11.543175 -1.717327 -6.190728 -22.760382 -6.758026 -4.885628 78.471845 -4.380194 6.858738 -14.825179 2.838434 -0.001281 -0.002221 -0.000568 5.909069 6.201812 1.564879 128.283167 65.231771 148.078422 6.501555 12.470204 -0.170892 0.002377 0.002095 0.001053
-13.828112 126.912354 26.777580 -166.287860 -49.807648 -3.391747 -3.105672 26.334977 -1.414480 -0.484797 4.448386 -0.133009 -0.722722 7.037672 -0.227218 -2.492846 21.608778 -1.035845 -4.750200 14.150012 2.554786 -5.692596 -10.738638 3.844119 1.522965 2.207140 0.772712 3.581688 -6.165219 -8.240143 -91.625442 -66.549363 140.481496 12.523314 23.053401 2.828520 -9.677171 -0.590308 -1.068716 2.021735 -16.513189 10.580684 72.517405 -61.139313 -111.900618 -7.044415 13.049776 -1.762985 -6.189335 -22.763315 -6.754221 -4.831360 78.474159 -4.324855 6.845688 -14.827326 2.835012 -0.001749 -0.002841 -0.000775 5.904208 6.201764 1.558863 128.272815 65.227387 148.065583 6.491604 12.453771 -0.142800 0.002802 0.001648 0.001242
-13.827765 126.911818 26.777268 -166.295120 -49.796477 -3.384848 -3.122799 26.333513 -1.423318 -0.488089 4.448985 -0.136925 -0.750642 7.050300 -0.230565 -2.480725 21.597503 -1.044211 -4.757457 14.029774 2.463610 -5.678222 -10.868192 3.747410 1.430550 2.155153 0.684330 3.585260 -6.048517 -8.015267 -91.137567 -66.524137 139.985899 12.406744 22.870445 2.766935 -9.746755 -0.528089 -1.094094 1.894178 -16.182606 10.702885 71.491360 -61.379035 -110.826749 -7.205618 14.451457 -1.877286 -6.179309 -22.775164 -6.751385 -4.792788 78.477660 -4.289205 6.858416 -14.832078 2.832213 -0.000246 -0.002583 -0.000109 5.899056 6.195775 1.552723 128.268314 65.224878 148.051087 6.481872 12.423872 -0.090348 0.004580 -0.002430 0.002029
-13.826654 126.911420 26.776711 -166.303827 -49.786037 -3.380286 -3.161222 26.341523 -1.443823 -0.459263 4.434799 -0.134743 -0.766034 7.057218 -0.232304 -2.493477 21.598942 -1.052169 -4.780686 13.907674 2.371596 -5.681579 -10.998813 3.654031 1.344778 2.116904 0.598532 3.557163 -5.935796 -7.784090 -90.639437 -66.480147 139.489387 12.265532 22.657030 2.687075 -9.802807 -0.461480 -1.126264 1.797230 -15.863291 10.818132 70.434955 -61.511165 -109.784818 -7.247564 15.688135 -2.024697 -6.167335 -22.782898 -6.740487 -4.797580 78.478718 -4.287922 6.841561 -14.840675 2.822190 -0.000039 -0.001683 -0.000017 5.901709 6.186996 1.552599 128.262870 65.222438 148.042637 6.472263 12.408904 -0.059268 0.004899 -0.005848 0.002170
-13.826632 126.911525 26.775859 -166.309602 -49.779412 -3.370700 -3.183608 26.342744 -1.459227 -0.450022 4.430914 -0.135803 -0.768225 7.058393 -0.233064 -2.520214 21.607105 -1.060500 -4.821393 13.785534 2.277865 -5.704133 -11.128748 3.563403 1.293784 2.098671 0.532908 3.471899 -5.835962 -7.568198 -90.133496 -66.416055 138.991919 12.089269 22.397606 2.577363 -9.842308 -0.385955 -1.158551 1.741721 -15.561216 10.922233 69.297529 -61.491135 -108.758666 -7.151812 16.708695 -2.162307 -6.159535 -22.789400 -6.742234 -4.800146 78.480582 -4.291514 6.844754 -14.844723 2.822454 -0.000129 -0.001286 -0.000057 5.902322 6.183762 1.546003 128.263228 65.225088 148.032969 6.464203 12.384046 0.008394 0.004451 -0.015845 0.001972
-13.826346 126.911731 26.774771 -166.338859 -49.773961 -3.343797 -3.178891 26.340234 -1.469016 -0.463032 4.436521 -0.136349 -0.758756 7.054358 -0.234687 -2.545517 21.616087 -1.070092 -4.879017 13.664349 2.183003 -5.745573 -11.256974 3.476023 1.242116 2.092352 0.476819 3.368164 -5.742781 -7.358742 -89.629045 -66.333852 138.490493 11.863968 22.081379 2.436858 -9.868903 -0.299277 -1.183274 1.743832 -15.275974 11.011803 68.055114 -61.280179 -107.754648 -6.877856 17.461591 -2.254664 -6.138401 -22.797365 -6.745194 -4.791795 78.481353 -4.282614 6.847175 -14.845011 2.821424 -0.000374 -0.000682 -0.000166 5.913845 6.186281 1.542050 128.248468 65.227918 148.009020 6.488384 12.410334 -0.081387 -0.001215 -0.005615 -0.000538
-13.825104 126.912173 26.773180 -166.344294 -49.768479 -3.340315 -3.186910 26.339026 -1.473392 -0.475880 4.442723 -0.138270 -0.786364 7.070974 -0.237806 -2.532466 21.602679 -1.079056 -4.951581 13.545668 2.086181 -5.803434 -11.381852 3.390393 1.188362 2.097611 0.430271 3.250755 -5.653476 -7.156893 -89.125224 -66.232629 137.980489 11.576959 21.703878 2.270953 -9.886107 -0.202473 -1.200190 1.813732 -15.004356 11.085797 66.688532 -60.849365 -106.770414 -6.371641 17.889975 -2.269422 -6.132558 -22.800786 -6.742303 -4.788742 78.478971 -4.276088 6.847480 -14.844899 2.816447 -0.000344 -0.001219 -0.000152 5.915005 6.183392 1.542745 128.247643 65.222125 148.011357 6.492706 12.420661 -0.141663 -0.000379 -0.001337 -0.000168
